<?xml version="1.0" encoding="UTF-8"?>
<!DOCTYPE svg PUBLIC "-//W3C//DTD SVG 1.1//EN" "http://www.w3.org/Graphics/SVG/1.1/DTD/svg11.dtd">
<svg xmlns="http://www.w3.org/2000/svg" version="1.1" width="512px" height="512px" style="shape-rendering:geometricPrecision; text-rendering:geometricPrecision; image-rendering:optimizeQuality; fill-rule:evenodd; clip-rule:evenodd" xmlns:xlink="http://www.w3.org/1999/xlink">
<g><path style="opacity:1" fill="#33f1b2" d="M 382.5,130.5 C 382.611,131.117 382.944,131.617 383.5,132C 387.491,132.642 391.491,133.142 395.5,133.5C 438.513,142.846 463.847,169.18 471.5,212.5C 473.045,226.451 473.711,240.451 473.5,254.5C 471.148,260.037 468.148,265.204 464.5,270C 469.721,290.572 469.554,311.072 464,331.5C 457.576,353.592 443.742,369.092 422.5,378C 401.912,385.821 380.578,389.654 358.5,389.5C 343.158,389.541 328.158,387.374 313.5,383C 309.007,380.921 304.674,378.588 300.5,376C 291.787,364.742 282.954,353.576 274,342.5C 264.538,331.698 253.372,323.198 240.5,317C 233.438,313.685 226.104,312.518 218.5,313.5C 204.696,345.137 182.03,367.97 150.5,382C 136.795,389.624 122.128,394.124 106.5,395.5C 89.7264,394.863 75.8931,388.196 65,375.5C 60.9817,368.786 56.4817,362.453 51.5,356.5C 51.7148,354.821 51.0481,353.821 49.5,353.5C 45.6058,345.929 42.9392,337.929 41.5,329.5C 41.8893,326.447 41.2227,323.78 39.5,321.5C 35.9214,301.706 34.7547,281.706 36,261.5C 48.9754,248.343 64.3088,239.01 82,233.5C 83.892,234.13 85.5587,235.13 87,236.5C 86.964,258.224 87.964,279.89 90,301.5C 91.7298,315.689 96.0632,329.023 103,341.5C 114.453,356.834 129.619,362.334 148.5,358C 159.896,349.584 167.896,338.584 172.5,325C 167.527,314.247 163.86,303.08 161.5,291.5C 162.01,288.612 161.344,286.279 159.5,284.5C 157.781,273.249 157.114,261.916 157.5,250.5C 159.031,245.75 159.698,240.75 159.5,235.5C 163.233,213.787 172.066,194.454 186,177.5C 196.053,165.612 207.22,154.945 219.5,145.5C 235.158,125.983 255.658,116.316 281,116.5C 299.304,116.99 316.47,121.657 332.5,130.5C 349.139,128.031 365.806,128.031 382.5,130.5 Z M 237.5,155.5 C 259.118,156.068 279.118,161.901 297.5,173C 311.81,185.39 316.976,200.89 313,219.5C 298.251,240.478 278.418,254.478 253.5,261.5C 238.35,258.491 224.85,261.825 213,271.5C 204.482,229.253 212.649,190.587 237.5,155.5 Z M 422.5,245.5 C 422.702,247.95 422.369,250.283 421.5,252.5C 403.971,259.509 388.138,269.175 374,281.5C 371.755,284.881 371.088,288.548 372,292.5C 373.076,295.079 374.909,296.746 377.5,297.5C 379.877,298.887 382.543,299.721 385.5,300C 394.827,300.5 404.161,300.666 413.5,300.5C 415.644,308.412 417.478,316.412 419,324.5C 424.09,346.542 415.59,357.209 393.5,356.5C 390.344,355.566 387.011,354.899 383.5,354.5C 367.987,350.079 354.653,342.079 343.5,330.5C 342.71,329.599 341.71,328.932 340.5,328.5C 322.314,308.905 301.647,292.405 278.5,279C 297.606,272.952 313.94,262.619 327.5,248C 343.099,238.402 355.266,225.568 364,209.5C 369.199,195.994 369.866,182.328 366,168.5C 378.692,171.012 389.692,176.679 399,185.5C 401.667,188.833 404.333,192.167 407,195.5C 414.959,211.343 420.125,228.01 422.5,245.5 Z"/></g>
<g><path style="opacity:1" fill="#7ff6cb" d="M 382.5,130.5 C 387.071,130.977 391.404,131.977 395.5,133.5C 391.491,133.142 387.491,132.642 383.5,132C 382.944,131.617 382.611,131.117 382.5,130.5 Z"/></g>
<g><path style="opacity:1" fill="#5ef3c0" d="M 471.5,212.5 C 472.895,216.591 473.728,220.924 474,225.5C 474.825,235.342 474.658,245.009 473.5,254.5C 473.711,240.451 473.045,226.451 471.5,212.5 Z"/></g>
<g><path style="opacity:1" fill="#84f6d0" d="M 422.5,245.5 C 423.152,246.449 423.486,247.615 423.5,249C 423.392,250.681 422.725,251.848 421.5,252.5C 422.369,250.283 422.702,247.95 422.5,245.5 Z"/></g>
<g><path style="opacity:1" fill="#6ff5c7" d="M 159.5,235.5 C 159.698,240.75 159.031,245.75 157.5,250.5C 157.444,245.269 158.111,240.269 159.5,235.5 Z"/></g>
<g><path style="opacity:1" fill="#82f6cb" d="M 159.5,284.5 C 161.344,286.279 162.01,288.612 161.5,291.5C 160.593,289.343 159.927,287.01 159.5,284.5 Z"/></g>
<g><path style="opacity:1" fill="#5ef4c1" d="M 377.5,297.5 C 389.604,298.908 401.604,299.908 413.5,300.5C 404.161,300.666 394.827,300.5 385.5,300C 382.543,299.721 379.877,298.887 377.5,297.5 Z"/></g>
<g><path style="opacity:1" fill="#9af8d8" d="M 39.5,321.5 C 41.2227,323.78 41.8893,326.447 41.5,329.5C 40.469,327.039 39.8023,324.373 39.5,321.5 Z"/></g>
<g><path style="opacity:1" fill="#9af8d6" d="M 340.5,328.5 C 341.71,328.932 342.71,329.599 343.5,330.5C 341.821,330.715 340.821,330.048 340.5,328.5 Z"/></g>
<g><path style="opacity:1" fill="#a1f9d9" d="M 49.5,353.5 C 51.0481,353.821 51.7148,354.821 51.5,356.5C 50.5987,355.71 49.9321,354.71 49.5,353.5 Z"/></g>
<g><path style="opacity:1" fill="#80f6cb" d="M 383.5,354.5 C 387.011,354.899 390.344,355.566 393.5,356.5C 390.482,356.665 387.482,356.498 384.5,356C 383.944,355.617 383.611,355.117 383.5,354.5 Z"/></g>
</svg>
